<!--?xml version="1.0" standalone="no"?-->              <svg id="sw-js-blob-svg" viewBox="0 0 100 100" xmlns="http://www.w3.org/2000/svg">                    <defs>                         <linearGradient id="sw-gradient" x1="0" x2="1" y1="1" y2="0">                            <stop id="stop1" stop-color="rgba(25, 53, 95, 1)" offset="0%"></stop>                            <stop id="stop2" stop-color="rgba(67, 114, 184, 1)" offset="100%"></stop>                        </linearGradient>                    </defs>                <path fill="url(#sw-gradient)" d="M23.5,-34.3C31.1,-31.8,38.1,-26.2,40.9,-19C43.7,-11.8,42.2,-3,39.3,4.4C36.3,11.8,31.7,17.7,26.7,22.9C21.8,28.1,16.3,32.6,9.9,35.1C3.5,37.6,-3.9,38,-10.7,36.2C-17.6,34.4,-23.9,30.2,-28.6,24.8C-33.4,19.3,-36.8,12.5,-37.3,5.6C-37.9,-1.2,-35.6,-8.3,-33.3,-15.9C-30.9,-23.6,-28.4,-31.9,-22.8,-35.3C-17.2,-38.7,-8.6,-37.2,-0.3,-36.7C8,-36.2,16,-36.8,23.5,-34.3Z" width="100%" height="100%" transform="translate(50 50)" stroke-width="0" style="transition: all 0.3s ease 0s;" stroke="url(#sw-gradient)"></path>              </svg>